<svg width="120" height="150" viewBox="0 0 337 343" fill="none" xmlns="http://www.w3.org/2000/svg">
<rect width="337" height="343" rx="61" fill="#F79CA4"/>
<path d="M91.6977 72.4759C108.076 72.2015 124.42 71.9271 140.799 71.6184C149.224 72.3387 156.065 72.2358 160.951 71.9614C169.073 71.4812 172.881 70.5208 178.442 72.5788C180.43 73.2991 185.822 75.3914 189.259 80.7079C190.877 83.2118 191.652 85.8529 192.427 95.354C193.034 102.969 193.337 106.81 193.202 113.499C192.899 125.744 191.686 128.522 191.079 140.115C190.641 148.176 190.843 154.007 191.113 161.176C191.45 170.471 191.888 181.927 194.449 196.23C195.258 200.758 195.595 201.65 197.819 213.243C199.673 222.95 200.515 227.855 199.942 234.338C199.571 238.659 199.302 241.746 197.482 245.279C196.572 247.063 193.91 251.488 183.766 256.667C178.677 259.274 170.455 262.704 159.3 264.11C159.131 268.912 158.929 273.714 158.761 278.55C158.222 278.859 153.841 281.363 149.965 279.476C145.685 277.418 143.394 270.696 146.325 264.144C143.528 263.801 139.518 263.355 134.665 262.978C121.59 262.018 119.163 262.944 117.647 264.453C116.703 265.379 114.614 267.986 115.288 274.4C111.918 274.64 108.548 274.846 105.178 275.086C105.313 272.582 105.077 269.015 102.852 266.202C100.932 263.801 97.7637 262.189 83.6771 261.503C79.195 261.297 73.1964 261.126 66.0857 261.366C66.389 272.239 66.6586 283.112 66.9619 293.985C65.1758 294.465 63.356 294.911 61.5699 295.392C61.6036 298.41 62.0754 303.143 64.704 307.842C66.4227 310.929 70.1971 316.006 82.1269 320.739C86.272 322.386 96.7527 326.09 118.017 325.987C132.643 325.919 143.629 324.101 151.38 322.797C156.233 321.974 169.848 319.504 187.17 313.845C199.504 309.798 205.637 307.774 213.22 303.486C218.78 300.331 230.205 293.093 240.955 280.025C251.975 266.614 256.828 253.717 258.546 248.709C263.197 235.024 263.467 224.322 263.669 209.093C263.972 187.827 264.208 169.579 256.727 148.176C251.301 132.741 244.055 121.936 236.304 97.9608C236.035 97.1376 233.945 90.6206 232.126 81.7026C229.329 68.0512 227.913 61.2598 229.969 53.7481C233.002 42.7378 241.09 36.3923 243.449 34.5744C246.448 32.2763 256.491 25.3477 269.667 26.9598C277.654 27.9202 283.013 31.556 288.202 35.0889C299.863 43.0122 305.491 52.9249 306.636 54.9829C312.837 66.2333 313.612 76.832 313.646 82.0113C310.95 81.3253 308.254 80.6393 305.558 79.9533C305.558 77.2093 305.322 73.1962 304.041 68.6343C303.502 66.6449 300.671 57.2124 291.909 49.0833C289.146 46.5451 279.879 38.1759 266.129 37.7643C261.95 37.6271 254.536 37.4213 247.931 42.3948C239.877 48.4659 238.394 58.2071 237.754 62.3574C237.181 66.1647 236.81 72.4759 241.124 86.1959C245.066 98.7154 249.313 106.021 253.087 113.773C261.31 130.546 265.051 144.712 267.174 152.601C274.048 178.463 273.88 199.695 273.711 210.602C273.543 221.887 273.307 233.068 269.6 247.406C267.915 253.923 265.219 264.144 258.277 275.943C255.682 280.368 249.549 290.59 238.562 299.885C228.014 308.803 217.331 312.542 196.404 319.676C176.858 326.33 161.76 329.417 158.053 330.172C135.845 334.596 120.309 334.905 108.413 335.077C102.246 335.18 93.9556 335.077 83.8793 332.23C77.0719 330.309 70.7026 328.388 65.0747 322.591C59.8849 317.241 57.627 310.964 56.3127 307.362C54.4929 302.32 53.7852 297.895 53.4819 294.774C51.7969 294.637 49.6064 294.157 48.2247 292.442C45.6298 289.32 47.3485 283.901 47.9888 281.637C49.6064 275.875 50.7522 267.094 48.7302 253.854C46.843 254.163 43.5067 254.334 40.4737 252.482C35.3176 249.361 34.5088 242.432 34.037 237.699C33.1271 228.85 35.1828 222.092 36.3623 217.633C36.3623 217.633 38.8898 208.407 42.1924 185.872C43.3382 178.051 46.1353 157.951 42.9338 134.456C42.3272 130.066 41.2488 123.651 40.5748 113.91C40.3389 110.652 39.766 101.151 41.788 89.523C42.9001 83.1089 44.0459 80.4335 46.0342 78.2383C49.4042 74.4996 53.9537 73.5049 57.8629 72.8532C70.1634 70.8638 82.4976 71.4469 91.6977 72.4759Z" fill="#FF5648"/>
<path d="M217.062 226.586C214.871 204.085 212.31 189.679 212.31 189.679C209.21 172.22 208.974 174.827 207.592 165.326C206.177 155.756 206.48 153.39 204.829 126.19C203.177 98.784 202.807 99.9502 203.211 96.04C204.593 82.0113 208.333 75.9745 204.289 68.3942C201.459 63.0777 195.966 59.1675 190.607 57.8984C185.148 56.595 182.553 58.6873 174.499 59.4762C170.219 59.8878 163.816 59.9907 155.728 58.0699C147.808 36.6324 130.588 24.353 116.602 26.754C106.694 28.469 99.0443 37.4213 98.3366 38.2788C92.001 45.8591 90.5856 54.0225 90.1812 57.3153C73.0616 54.3655 59.9523 56.3206 52.2013 58.1385C40.5748 60.8825 36.396 64.4154 34.037 67.914C32.0824 70.7609 31.0714 74.0194 30.3637 81.634C29.0157 95.8685 30.4311 106.982 30.5659 108.045C32.9586 127.013 32.3183 142.585 31.9139 152.635C31.4084 165.429 30.9366 176.439 27.1959 190.605C24.1292 202.096 21.6017 205.457 20.4222 216.433C18.872 230.496 21.3321 240.203 22.2083 243.29C24.1292 250.184 26.2523 257.73 33.1608 263.63C38.5191 268.192 44.3155 269.735 47.7529 270.353C48.0225 265.756 48.2921 261.195 48.5617 256.598C45.2591 255.055 39.3279 251.591 35.9579 244.868C33.0597 239.071 33.363 233.549 33.5989 230.496C35.2165 209.024 40.7096 199.283 42.9675 180.144C43.4056 176.576 42.8664 179.835 44.0459 145.466C44.3155 137.44 44.4503 134.285 43.81 129.311C42.7653 121.216 40.9118 118.232 40.4063 109.417C40.0693 103.689 40.5411 99.4357 40.7433 97.7207C41.451 92.2327 42.1924 86.3331 46.169 80.605C47.5844 78.5813 49.9771 75.2199 54.257 73.3334C58.4695 71.4812 62.3787 71.9614 63.7604 72.1329C70.3993 72.8875 89.8442 72.6131 128.768 72.0643C140.563 71.8928 152.459 73.6421 164.153 71.9614C169.208 71.2411 176.858 69.7662 183.193 74.1566C187.102 76.8663 189.023 80.7765 190.203 83.2461C193.842 90.8607 193.573 98.0294 193.27 103.62C192.494 119.124 192.09 126.876 191.416 133.804C190.742 140.596 188.922 160.833 192.562 183.814C196.741 210.156 198.426 217.085 198.426 217.085C199.807 222.779 201.526 228.918 199.841 236.67C199.234 239.414 197.651 246.308 191.922 251.522C186.934 256.05 180.767 257.593 176.824 258.553C172.814 259.548 168.837 260.852 164.793 261.675C162.063 262.258 160.277 262.498 159.266 264.041C158.12 265.859 159.367 267.403 159.03 271.93C158.828 274.777 158.66 277.075 157.008 278.619C155.155 280.334 151.852 280.78 149.931 279.374C148.853 278.585 148.55 277.453 147.606 271.587C146.46 264.522 146.629 264.556 146.292 264.076C143.259 259.651 133.25 262.018 123.342 264.384C119.365 265.345 117.175 266.202 115.557 268.192C113.367 270.936 113.94 273.68 111.918 274.537C109.828 275.395 106.964 273.44 105.481 271.896C102.381 268.706 103.762 265.928 101.639 263.287C100.561 261.949 98.1007 260.063 83.6434 261.4C79.3298 261.812 73.3312 262.532 66.1868 264.076C65.7487 267.231 64.8388 276.115 69.422 279.202C71.6462 280.677 74.1737 280.128 78.5547 279.511C83.2727 278.825 89.8779 278.07 98.067 277.761C99.3139 282.118 100.561 286.474 101.808 290.83C107.503 290.967 113.198 291.138 118.894 291.276C120.039 287.571 121.185 283.867 122.331 280.162C128.633 280.265 134.901 280.403 141.203 280.505C142.618 283.318 144.303 286.302 146.258 289.423C147.909 292.065 149.594 294.466 151.246 296.626C158.053 297.484 161.423 295.769 163.209 294.088C164.827 292.579 165.231 291.001 167.253 286.988C169.275 282.941 171.23 279.854 172.51 277.899C176.689 277.83 195.056 277.11 207.626 263.047C209.446 260.989 214.332 255.398 216.725 246.686C218.241 241.369 218.073 237.15 217.062 226.586ZM132.037 57.1095C129.577 60.4023 125.33 62.3231 121.286 61.8429C116.804 61.3284 112.39 58.4815 110.873 53.9539C109.121 48.706 113.097 44.5557 117.748 43.218C118.624 42.9779 119.568 43.0122 120.376 43.3209C122.264 42.2919 124.488 41.9489 126.544 42.6692C129.004 43.4924 130.958 45.4132 131.902 47.7113C134.16 50.2152 134.295 54.0568 132.037 57.1095Z" fill="#D4D3E5"/>
<path d="M301.682 79.0615C302.997 78.4098 304.581 80.1248 308.389 81.0166C313.073 82.1142 317.319 81.0166 320.15 79.9533C318.296 87.3278 316.443 94.7023 314.589 102.077C311.051 102.008 307.513 101.94 303.974 101.871C299.222 84.5152 299.997 79.919 301.682 79.0615Z" fill="#D4D3E5"/>
<path d="M61.1655 119.193C68.4784 116.243 164.287 118.815 171.196 119.021C172.14 119.295 175.071 120.29 177.195 123.309C178.913 125.744 179.183 128.213 179.217 129.277C179.452 152.738 179.688 176.165 179.924 199.626C178.239 201.993 175.712 204.702 172.005 206.074C168.365 207.446 165.13 206.932 164.321 206.829C157.413 205.937 119.264 206.52 63.2212 207.961C60.8622 207 56.616 204.874 54.4592 200.415C53.3134 198.014 53.1786 195.819 53.1112 192.423C52.909 183.882 52.8079 179.629 53.1786 176.439C53.8863 170.128 54.0885 157.403 52.235 129.654C53.0775 126.876 54.594 123.72 57.4585 121.388C57.4585 121.388 59.1098 120.05 61.1655 119.193Z" fill="#F4ECCE"/>
<path d="M62.1091 190.365C68.1077 175.136 74.1063 159.872 80.0712 144.643C83.239 144.232 86.4405 143.854 89.6083 143.443C96.2472 158.775 102.886 174.107 109.491 189.439C105.38 189.439 101.269 189.439 97.1234 189.439C97.8985 185.46 96.045 182.236 93.7534 181.653C92.0347 181.241 90.3834 182.442 89.9453 182.785C86.2046 182.785 82.4639 182.785 78.7232 182.785C78.858 179.492 79.0265 176.233 79.1613 172.941C83.3401 173.078 87.5526 173.249 91.7314 173.386C89.9453 168.344 88.1255 163.337 86.3394 158.294C80.1723 164.297 79.0939 168.859 79.3635 172.014C79.7342 176.405 82.902 179.629 81.1496 182.545C80.1386 184.225 78.4536 184.225 76.1957 187.106C75.151 188.41 74.5444 189.679 74.1737 190.536C70.1971 190.502 66.1531 190.434 62.1091 190.365Z" fill="#5679E8"/>
<path d="M117.175 143.957V135.965C120.41 133.701 124.488 134.559 126.173 137.097C127.352 138.949 127.251 141.556 125.937 143.717C127.47 143.837 129.004 143.949 130.537 144.06C132.07 144.171 133.604 144.283 135.137 144.403C136.788 147.147 136.283 150.714 134.025 152.875C131.834 154.933 128.498 155.242 125.937 153.561L125.027 161.793C122.466 161.862 119.938 161.93 117.377 162.033C117.378 162.028 117.38 162.02 117.382 162.008C117.459 161.649 118.178 158.287 115.793 155.859C114.007 154.041 111.244 153.492 108.817 154.487C108.48 152.995 108.143 151.512 107.806 150.028C107.469 148.545 107.132 147.061 106.795 145.569C107.207 145.504 107.618 145.439 108.028 145.374C111.082 144.891 114.115 144.411 117.175 143.957Z" fill="#5679E8"/>
<path d="M117.175 143.957V135.965C120.41 133.701 124.488 134.559 126.173 137.097C127.352 138.949 127.251 141.556 125.937 143.717C127.47 143.837 129.004 143.949 130.537 144.06C132.07 144.171 133.604 144.283 135.137 144.403C136.788 147.147 136.283 150.714 134.025 152.875C131.834 154.933 128.498 155.242 125.937 153.561L125.027 161.793C122.466 161.862 119.938 161.93 117.377 162.033C117.378 162.028 117.38 162.02 117.382 162.008C117.459 161.649 118.178 158.287 115.793 155.859C114.007 154.041 111.244 153.492 108.817 154.487C108.48 152.995 108.143 151.512 107.806 150.028C107.469 148.545 107.132 147.061 106.795 145.569C107.207 145.504 107.618 145.439 108.028 145.374C111.082 144.891 114.115 144.411 117.175 143.957Z" stroke="#5679E8"/>
<path opacity="0.4" d="M48.528 61.74C49.8423 63.4207 44.7199 67.0565 42.462 74.088C39.6312 82.9374 43.7426 89.7288 52.572 111.818C56.2453 121.01 59.2446 128.488 62.345 138.229C67.5685 154.556 70.1634 162.925 69.3209 172.563C68.9839 176.474 67.8718 188.821 59.312 199.283C51.1566 209.299 44.9558 206.829 36.3623 217.633C32.8912 222.024 25.7468 231.045 27.971 241.815C29.3527 248.503 34.1718 255.123 40.44 257.936C45.0569 260.028 46.3712 258.176 49.5053 260.371C51.6621 261.88 53.8526 264.693 56.616 283.318C58.0651 293.162 57.5933 293.162 58.638 297.038C59.6153 300.639 61.8058 308.46 67.737 315.217C73.7356 322.077 80.6441 324.512 89.305 327.565C104.773 333.019 115.254 331.372 115.254 332.367C115.288 333.773 95.0677 339.364 76.499 330.309C72.455 328.32 66.5912 325.473 62.1765 319.127C59.9186 315.903 58.4021 311.993 55.3017 304.138C53.6841 300.022 52.4372 296.558 51.5947 294.122C50.6511 293.951 49.2694 293.574 48.2247 292.442C46.5397 290.59 46.843 287.846 47.0115 285.65C47.2811 282.495 47.5507 278.001 47.517 271.999C45.3265 271.107 42.3609 269.701 39.092 267.506C39.092 267.506 31.8465 262.704 27.0274 256.152C17.7599 243.667 20.4896 225.145 22.242 213.346C23.9944 201.547 25.8479 201.478 28.645 186.592C31.3073 172.392 31.678 161.381 31.8802 154.35C32.2509 141.968 31.9476 118.095 29.7571 89.866C29.2516 83.6234 28.4765 74.4996 34.037 67.914C38.7887 62.3231 47.0452 59.8535 48.528 61.74Z" fill="black"/>
<path opacity="0.4" d="M204.188 115.934C203.514 115.831 202.705 118.026 197.145 134.799C191.551 151.64 191.18 153.012 190.91 155.756C189.765 166.835 192.562 175.89 193.775 179.732C195.494 185.186 196.168 184.705 199.504 193.109C202.739 201.238 205.401 207.961 206.581 216.433C207.457 222.71 208.637 231.456 204.896 241.472C203.346 245.622 199.807 255.055 191.079 259.994C179.554 266.511 169.241 259.479 164.456 266.168C161.76 269.941 164.153 273.44 159.738 281.603C158.39 284.107 156.368 287.743 153.672 287.777C150.302 287.811 148.718 282.152 147.269 282.632C145.382 283.249 144.977 293.951 149.628 296.318C151.212 297.141 153.2 296.764 157.109 295.975C160.479 295.323 162.131 294.98 163.175 294.157C167.287 290.83 164.389 283.97 168.399 280.986C169.679 280.025 170.758 280.162 173.218 279.888C178.475 279.339 182.115 277.864 188.484 275.326C192.932 273.542 199.302 271.004 205.536 265.105C209.513 261.366 211.703 257.867 212.377 256.804C212.647 256.358 215.208 252.139 216.758 246.754C219.556 237.013 218.005 227.032 216.253 217.565C213.928 204.874 212.479 199.626 210.625 190.708C207.761 177.022 204.829 162.925 204.222 145.775C203.582 128.179 205.739 116.208 204.188 115.934Z" fill="black"/>
<path opacity="0.4" d="M133.452 33.614C132.475 34.8145 142.888 40.2682 145.584 52.136C146.763 57.2467 145.955 61.2598 149.291 64.484C151.549 66.6792 154.413 67.1937 156.705 67.571C161.996 68.4628 165.77 67.228 171.196 65.856C182.216 63.0434 187.709 61.6371 191.416 62.426C200.313 64.3125 204.323 72.4073 205.536 71.4469C206.749 70.4522 203.885 61.054 196.808 57.624C191.686 55.1544 187.406 57.2467 179.284 58.31C173.622 59.0646 165.501 59.3733 155.357 57.281C154.312 53.5423 152.054 47.677 147.1 42.2576C141.54 36.2208 134.261 32.6193 133.452 33.614Z" fill="black"/>
<path d="M116.265 144.472L116.636 135.142C119.635 135.279 122.634 135.382 125.634 135.519C125.634 138.503 125.634 141.522 125.634 144.506C128.566 144.506 131.531 144.506 134.463 144.506C134.632 147.559 134.834 150.611 135.002 153.664C131.834 153.664 128.633 153.664 125.465 153.664C125.297 156.717 125.094 159.769 124.926 162.822C122.398 162.822 119.871 162.822 117.377 162.822C117.141 160.009 116.905 157.197 116.669 154.384C113.67 154.247 110.671 154.144 107.672 154.007C107.436 151.023 107.2 148.004 106.964 145.02C106.896 145.02 116.265 144.472 116.265 144.472Z" stroke="black" stroke-width="3" stroke-miterlimit="10" stroke-linecap="round" stroke-linejoin="round"/>
<path d="M307.85 102.934C308.22 116.174 308.557 129.448 308.928 142.688" stroke="black" stroke-width="4" stroke-miterlimit="10" stroke-linecap="round" stroke-linejoin="round"/>
</svg>
