<svg xmlns="http://www.w3.org/2000/svg" viewBox="0 0 1440 320">
<path fill="#F79CA4" fill-opacity="0.4" d="M0,160L26.7,165.3C53.3,171,107,181,160,202.7C213.3,224,267,256,320,250.7C373.3,245,427,203,480,197.3C533.3,192,587,224,640,234.7C693.3,245,747,235,800,245.3C853.3,256,907,288,960,298.7C1013.3,309,1067,299,1120,261.3C1173.3,224,1227,160,1280,138.7C1333.3,117,1387,139,1413,149.3L1440,160L1440,320L1413.3,320C1386.7,320,1333,320,1280,320C1226.7,320,1173,320,1120,320C1066.7,320,1013,320,960,320C906.7,320,853,320,800,320C746.7,320,693,320,640,320C586.7,320,533,320,480,320C426.7,320,373,320,320,320C266.7,320,213,320,160,320C106.7,320,53,320,27,320L0,320Z"></path>
<path fill="#F79CA4" fill-opacity="0.3" d="M0,64L21.8,80C43.6,96,87,128,131,149.3C174.5,171,218,181,262,160C305.5,139,349,85,393,101.3C436.4,117,480,203,524,202.7C567.3,203,611,117,655,80C698.2,43,742,53,785,96C829.1,139,873,213,916,208C960,203,1004,117,1047,96C1090.9,75,1135,117,1178,138.7C1221.8,160,1265,160,1309,154.7C1352.7,149,1396,139,1418,133.3L1440,128L1440,320L1418.2,320C1396.4,320,1353,320,1309,320C1265.5,320,1222,320,1178,320C1134.5,320,1091,320,1047,320C1003.6,320,960,320,916,320C872.7,320,829,320,785,320C741.8,320,698,320,655,320C610.9,320,567,320,524,320C480,320,436,320,393,320C349.1,320,305,320,262,320C218.2,320,175,320,131,320C87.3,320,44,320,22,320L0,320Z"></path>
</svg>